inDegrees=yes
name=ik_data_2024_11_07_18_54
DataType=double
version=3
OpenSimVersion=4.5.1
endheader
time	pelvis_tilt	pelvis_list	pelvis_rotation	pelvis_tx	pelvis_ty	pelvis_tz	hip_flexion_r	hip_adduction_r	hip_rotation_r	knee_angle_r	knee_angle_r_beta	ankle_angle_r	subtalar_angle_r	mtp_angle_r	hip_flexion_l	hip_adduction_l	hip_rotation_l	knee_angle_l	knee_angle_l_beta	ankle_angle_l	subtalar_angle_l	mtp_angle_l	lumbar_extension	lumbar_bending	lumbar_rotation	arm_flex_r	arm_add_r	arm_rot_r	elbow_flex_r	pro_sup_r	wrist_flex_r	wrist_dev_r	arm_flex_l	arm_add_l	arm_rot_l	elbow_flex_l	pro_sup_l	wrist_flex_l	wrist_dev_l
5.0418	0.1597581767524308	-6.121423974841282	-38.76004846764014	0	0.9399999999999999	0	36.10606587681934	13.71765786656559	7.047742230726318	23.62629498031188	0.4123566374538511	-5.124667728775187	0	0	-3.718103069148214	-4.765618942620979	-19.17333570805169	0.5114836100034583	0.008927073064546952	-5.124667728775187	0	0	0	0	0	0	-9.110139156380882	0	74.04591029611713	45.31050565534253	0	0	0	-9.110139156380882	0	74.04591029611713	45.31050565534253	0	0
5.0999	0.2713766105702595	-5.45441896792411	-36.67671715974846	0	0.9399999999999999	0	35.9533896718878	13.14271741085425	5.636830324974222	22.98164167870984	0.4011053148070435	-5.123988754767166	0	0	-3.218738635923463	-4.299794741572761	-17.06537088108657	0.5182747618473023	0.009045601024224914	-5.123988754767166	0	0	0	0	0	0	-9.113782582529103	0	74.04705902950973	45.30947648731219	0	0	0	-9.113782582529103	0	74.04705902950973	45.30947648731219	0	0
5.15411	0.1667494772085993	-4.94380359194136	-35.11983619004829	0	0.9399999999999999	0	35.56534214397568	12.91978181946783	4.570007914189491	22.75250643898199	0.397106150441446	-5.12360488782272	0	0	-2.718126190525382	-4.026596706806767	-15.47253864688738	0.5244837389588971	0.00915396811800321	-5.12360488782272	0	0	0	0	0	0	-9.115858193495267	0	74.04771248791016	45.30889306026243	0	0	0	-9.115858193495267	0	74.04771248791016	45.30889306026243	0	0
5.21927	0.3685599985545619	-4.562932364855644	-33.82108215642413	0	0.9399999999999999	0	34.87564192756656	12.47184390031012	3.780701591641536	23.14015802152428	0.4038719469073756	-5.123200829675533	0	0	-2.595455290863064	-3.655334452430632	-14.17857855543021	0.5117786608202061	0.0089322226727599	-5.123200829675533	0	0	0	0	0	0	-9.118043797668859	0	74.04840076701093	45.30827859622376	0	0	0	-9.118043797668859	0	74.04840076701093	45.30827859622376	0	0
5.2219	0.3799354515238696	-4.037145369586588	-32.21937212926475	0	0.9399999999999999	0	34.41922584331306	12.09415260207119	2.725753198024688	23.02536033762152	0.4018683493496087	-5.122775753806748	0	0	-2.212548937802857	-3.277042550682593	-12.55377984064524	0.5216602907432246	0.009104689650380167	-5.122775753806748	0	0	0	0	0	0	-9.120352617891646	0	74.04912736708172	45.30763111778605	0	0	0	-9.120352617891646	0	74.04912736708172	45.30763111778605	0	0
5.27254	0.236746204423097	-3.503852486130474	-30.62757993353292	0	0.9399999999999999	0	34.21284248557821	11.51904565518063	1.688562574385857	22.7458696674949	0.3969903169272939	-5.122386591067984	0	0	-1.71293688099148	-2.954255754849416	-10.94892769409933	0.5333614142389325	0.009308912781562737	-5.122386591067984	0	0	0	0	0	0	-9.122481349989421	0	74.0497963698016	45.30703686702199	0	0	0	-9.122481349989421	0	74.0497963698016	45.30703686702199	0	0
5.34057	0.2328468756217266	-2.879893578974615	-28.59922351167194	0	0.9399999999999999	0	34.09619180397817	10.60460608652986	0.3258239117823456	22.30537756940151	0.3893022794865464	-5.121654729106958	0	0	-1.327543416606519	-2.457039485301903	-8.90348244993096	0.4997562113546483	0.008722391345431284	-5.121654729106958	0	0	0	0	0	0	-9.126479917266195	0	74.0510542340505	45.3059187739626	0	0	0	-9.126479917266195	0	74.0510542340505	45.3059187739626	0	0
5.39178	0.1998263717803368	-2.072760544635775	-26.10187389018096	0	0.9399999999999999	0	33.81331535352811	9.591337684804735	-1.29843329385807	21.45510706964756	0.3744622597332624	-5.120683697593333	0	0	-0.8309919708789102	-1.812277325354521	-6.380203139473644	0.512053846654099	0.008937025571616177	-5.120683697593333	0	0	0	0	0	0	-9.131804442054083	0	74.05272908921638	45.30443228820736	0	0	0	-9.131804442054083	0	74.05272908921638	45.30443228820736	0	0
5.40387	-0.002889872880617541	-1.384579334591341	-24.10920414822974	0	0.9399999999999999	0	33.9062888550778	8.580991222792123	-2.63930896757746	20.91638250313498	0.3650597422862385	-5.120487051763505	0	0	-0.2926499109434086	-1.29352693572406	-4.380162094547138	0.5282279787618948	0.009219317430549743	-5.120487051763505	0	0	0	0	0	0	-9.132902319610871	0	74.05307242344523	45.30413009771901	0	0	0	-9.132902319610871	0	74.05307242344523	45.30413009771901	0	0
5.45619	-0.0460704151497946	-1.122227102720119	-23.31297913415723	0	0.9399999999999999	0	33.98590447381458	8.562859328355131	-3.242719813027559	20.45462196095336	0.3570005004693751	-5.120330012750719	0	0	-0.138226109220315	-1.074428758451332	-3.580307970247338	0.5111757029697258	0.008921699073018272	-5.120330012750719	0	0	0	0	0	0	-9.133774592426112	0	74.05334566634144	45.30388901324127	0	0	0	-9.133774592426112	0	74.05334566634144	45.30388901324127	0	0
5.51967	-0.1970702730189008	-0.7460370871978982	-22.15635717640446	0	0.9399999999999999	0	34.11465548389366	8.179771147782402	-4.121276597302892	20.37751010231947	0.3556546446438814	-5.120157180836721	0	0	0.1769262857212175	-0.7838819353862878	-2.426244699354459	0.5268207586334939	0.00919475680600881	-5.120157180836721	0	0	0	0	0	0	-9.13473837180501	0	74.05364727878829	45.30362337727858	0	0	0	-9.13473837180501	0	74.05364727878829	45.30362337727858	0	0
5.56955	-0.2938274199158074	-0.2847829729916404	-20.76180326187514	0	0.9399999999999999	0	34.35307447793559	7.412410936043899	-5.059528073253666	20.07300804201488	0.35034008111246	-5.119996040368999	0	0	0.45268836203894	-0.3790304883946151	-1.026846269538458	0.5290520159209557	0.009233699592134138	-5.119996040368999	0	0	0	0	0	0	-9.135651220956539	0	74.05393170942938	45.30337470395207	0	0	0	-9.135651220956539	0	74.05393170942938	45.30337470395207	0	0
5.58505	-0.3178295651585201	-0.1649067357713012	-20.28458910251394	0	0.9399999999999999	0	34.26927409059321	7.103002398658843	-5.446243144184934	20.63383633470158	0.3601283813581812	-5.119806207221697	0	0	0.5099097671642439	-0.2765302904391305	-0.5533598788603656	0.5279299502721472	0.009214115852138901	-5.119806207221697	0	0	0	0	0	0	-9.136702487917379	0	74.0542615500074	45.30308324073118	0	0	0	-9.136702487917379	0	74.0542615500074	45.30308324073118	0	0
